<?xml version="1.0" encoding="iso-8859-1"?>
<!--Created for PAL-->
<svg xmlns="http://www.w3.org/2000/svg" xmlns:xlink="http://www.w3.org/1999/xlink" width="1000" height="1000" viewBox="0 0 1000 1000">
  <defs>
    <style>
      .cls-1 {
        fill: #fff;
      }
      .cls-2 {
        fill: #000;
      }
    </style>
  </defs>
  <title>awesome_icon</title>
  <g id="Layer_2" data-name="Layer 2">
    <g id="Layer_1-2" data-name="Layer 1">
      <path class="cls-1" d="M500,0C223.6,0,0,223.6,0,500s223.6,500,500,500,500-223.6,500-500S776.4,0,500,0Zm0,900C264.6,900,75,710.4,75,475S264.6,100,500,100,925,289.6,925,525,735.4,900,500,900Z"/>
      <path class="cls-2" d="M500,0C223.6,0,0,223.6,0,500s223.6,500,500,500,500-223.6,500-500S776.4,0,500,0Zm0,900C264.6,900,75,710.4,75,475S264.6,100,500,100,925,289.6,925,525,735.4,900,500,900Z"/>
      <path class="cls-1" d="M500,0C223.6,0,0,223.6,0,500s223.6,500,500,500,500-223.6,500-500S776.4,0,500,0Zm0,900C264.6,900,75,710.4,75,475S264.6,100,500,100,925,289.6,925,525,735.4,900,500,900Z"/>
      <path class="cls-2" d="M500,0C223.6, 0, 0, 223.6, 0, 500s223.6, 500, 500, 500, 500-223.6, 500-500S776.4, 0, 500, 0Zm0, 900C264.6, 900, 75, 710.4, 75, 475S264.6, 100, 500, 100, 925, 289.6, 925, 525, 735.4, 900, 500, 900Z"/>
        <path class="cls-1" d="M500,0C223.6,0,0,223.6,0,500s223.6,500,500,500,500-223.6,500-500S776.4,0,500,0Zm0,900C264.6,900,75,710.4,75,475S264.6,100,500,100,925,289.6,925,525,735.4,900,500,900Z"/>
        <path class="cls-2" d="M500,0C223.6, 0, 0, 223.6, 0, 500s223.6, 500, 500, 500, 500-223.6, 500-500S776.4, 0, 500, 0Zm0, 900C264.6, 900, 75, 710.4, 75, 475S264.6, 100, 500, 100, 925, 289.6, 925, 525, 735.4, 900, 500, 900Z"/>
    </g>
    </g>
</svg>




